<svg width="52" height="52" viewBox="0 0 52 52" fill="none" xmlns="http://www.w3.org/2000/svg">
<path d="M0 0H51.7047V51.0199L25.8524 41.0263L0 51.0199V0Z" fill="#4F2972"/>
<path d="M9.9755 18.6337V20.5151H8.74647V18.6185L6.69051 15.2045H7.9954L9.41409 17.564L10.8328 15.2045H12.039L9.9755 18.6337ZM15.7247 19.3771H13.2591L12.7887 20.5151H11.5293L13.8963 15.2045H15.1102L17.4848 20.5151H16.1951L15.7247 19.3771ZM15.3378 18.444L14.4957 16.4108L13.6536 18.444H15.3378ZM19.7807 20.6062C19.3609 20.6062 18.9537 20.5505 18.5592 20.4393C18.1698 20.3229 17.8562 20.1737 17.6185 19.9917L18.0358 19.0661C18.2634 19.233 18.534 19.367 18.8475 19.4682C19.1611 19.5693 19.4747 19.6199 19.7883 19.6199C20.1373 19.6199 20.3952 19.5693 20.5621 19.4682C20.729 19.362 20.8125 19.2229 20.8125 19.0509C20.8125 18.9245 20.7619 18.8208 20.6607 18.7399C20.5646 18.6539 20.4382 18.5856 20.2814 18.535C20.1297 18.4845 19.9223 18.4288 19.6593 18.3681C19.2547 18.272 18.9234 18.1759 18.6655 18.0798C18.4075 17.9837 18.185 17.8295 17.9978 17.6171C17.8158 17.4046 17.7247 17.1214 17.7247 16.7674C17.7247 16.4588 17.8082 16.1807 17.9751 15.9328C18.142 15.68 18.3923 15.4802 18.7261 15.3335C19.065 15.1868 19.4772 15.1135 19.9628 15.1135C20.3016 15.1135 20.6329 15.154 20.9566 15.2349C21.2803 15.3158 21.5635 15.4321 21.8063 15.5839L21.427 16.517C20.9364 16.2388 20.4458 16.0997 19.9552 16.0997C19.6112 16.0997 19.3558 16.1554 19.1889 16.2667C19.0271 16.3779 18.9462 16.5246 18.9462 16.7067C18.9462 16.8888 19.0397 17.0253 19.2269 17.1163C19.4191 17.2023 19.7099 17.2883 20.0993 17.3743C20.5039 17.4704 20.8352 17.5665 21.0932 17.6626C21.3511 17.7587 21.5711 17.9104 21.7532 18.1178C21.9403 18.3251 22.0339 18.6058 22.0339 18.9599C22.0339 19.2634 21.9479 19.5415 21.776 19.7944C21.609 20.0422 21.3562 20.2395 21.0173 20.3862C20.6784 20.5328 20.2662 20.6062 19.7807 20.6062ZM26.9856 19.5289V20.5151H22.8737V15.2045H26.887V16.1908H24.0951V17.3439H26.5608V18.2999H24.0951V19.5289H26.9856ZM32.8341 15.2045V20.5151H31.8251L29.1774 17.2908V20.5151H27.9635V15.2045H28.9801L31.6203 18.4288V15.2045H32.8341ZM36.0252 18.4288L35.312 19.1723V20.5151H34.0906V15.2045H35.312V17.6853L37.6639 15.2045H39.0294L36.8293 17.5715L39.1584 20.5151H37.7246L36.0252 18.4288ZM42.0856 20.6062C41.5344 20.6062 41.0362 20.4873 40.5911 20.2496C40.1511 20.0119 39.8046 19.6857 39.5517 19.2709C39.3039 18.8511 39.18 18.3808 39.18 17.8598C39.18 17.3389 39.3039 16.871 39.5517 16.4563C39.8046 16.0365 40.1511 15.7078 40.5911 15.4701C41.0362 15.2323 41.5344 15.1135 42.0856 15.1135C42.6369 15.1135 43.1326 15.2323 43.5726 15.4701C44.0126 15.7078 44.3591 16.0365 44.612 16.4563C44.8649 16.871 44.9913 17.3389 44.9913 17.8598C44.9913 18.3808 44.8649 18.8511 44.612 19.2709C44.3591 19.6857 44.0126 20.0119 43.5726 20.2496C43.1326 20.4873 42.6369 20.6062 42.0856 20.6062ZM42.0856 19.5592C42.3992 19.5592 42.6825 19.4884 42.9353 19.3468C43.1882 19.2001 43.3855 18.9978 43.5271 18.7399C43.6738 18.4819 43.7471 18.1886 43.7471 17.8598C43.7471 17.5311 43.6738 17.2377 43.5271 16.9798C43.3855 16.7218 43.1882 16.5221 42.9353 16.3804C42.6825 16.2338 42.3992 16.1604 42.0856 16.1604C41.7721 16.1604 41.4888 16.2338 41.236 16.3804C40.9831 16.5221 40.7833 16.7218 40.6366 16.9798C40.495 17.2377 40.4242 17.5311 40.4242 17.8598C40.4242 18.1886 40.495 18.4819 40.6366 18.7399C40.7833 18.9978 40.9831 19.2001 41.236 19.3468C41.4888 19.4884 41.7721 19.5592 42.0856 19.5592ZM24.8955 23.2045L23.1582 28.5151H21.8381L20.6698 24.9191L19.4635 28.5151H18.151L16.4061 23.2045H17.6807L18.8793 26.9371L20.1311 23.2045H21.2691L22.483 26.9675L23.7196 23.2045H24.8955ZM29.6935 27.5289V28.5151H25.5816V23.2045H29.5949V24.1908H26.803V25.3439H29.2687V26.2999H26.803V27.5289H29.6935ZM34.5709 25.7536C34.8744 25.8497 35.1121 26.0116 35.2841 26.2392C35.456 26.4617 35.542 26.7373 35.542 27.0661C35.542 27.5314 35.3599 27.8905 34.9958 28.1434C34.6367 28.3912 34.1107 28.5151 33.4178 28.5151H30.6714V23.2045H33.266C33.9134 23.2045 34.4091 23.3284 34.753 23.5763C35.102 23.8241 35.2765 24.1604 35.2765 24.5853C35.2765 24.8432 35.2133 25.0734 35.0868 25.2757C34.9654 25.478 34.7935 25.6373 34.5709 25.7536ZM31.8929 24.1301V25.3819H33.1143C33.4178 25.3819 33.6479 25.3288 33.8047 25.2226C33.9615 25.1163 34.0399 24.9596 34.0399 24.7522C34.0399 24.5448 33.9615 24.3906 33.8047 24.2894C33.6479 24.1832 33.4178 24.1301 33.1143 24.1301H31.8929ZM33.3267 27.5896C33.6504 27.5896 33.8932 27.5365 34.055 27.4303C34.222 27.324 34.3054 27.1597 34.3054 26.9371C34.3054 26.4971 33.9792 26.2771 33.3267 26.2771H31.8929V27.5896H33.3267Z" fill="url(#paint0_linear_35:2690)"/>
<defs>
<linearGradient id="paint0_linear_35:2690" x1="26.041" y1="13.5151" x2="38.6365" y2="30.2694" gradientUnits="userSpaceOnUse">
<stop stop-color="#FAFAFA"/>
<stop offset="1" stop-color="#D0D0D0"/>
</linearGradient>
</defs>
</svg>
