<svg width="32" height="32" viewBox="0 0 32 32" fill="none" xmlns="http://www.w3.org/2000/svg">
<path d="M0 0H32V31.5762L16 25.3911L0 31.5762V0Z" fill="url(#paint0_linear_168:604)"/>
<path d="M6.03308 11.1786V12.3431H5.27244V11.1692L4 9.05635H4.8076L5.68563 10.5166L6.56365 9.05635H7.31021L6.03308 11.1786ZM9.59126 11.6388H8.06528L7.77417 12.3431H6.99474L8.45969 9.05635H9.21094L10.6806 12.3431H9.88239L9.59126 11.6388ZM9.3518 11.0612L8.83062 9.8029L8.30944 11.0612H9.3518ZM12.1015 12.3994C11.8417 12.3994 11.5897 12.365 11.3456 12.2961C11.1045 12.2241 10.9105 12.1318 10.7633 12.0191L11.0216 11.4462C11.1624 11.5495 11.3299 11.6325 11.524 11.6951C11.7181 11.7577 11.9121 11.789 12.1062 11.789C12.3222 11.789 12.4818 11.7577 12.5851 11.6951C12.6884 11.6294 12.7401 11.5433 12.7401 11.4369C12.7401 11.3586 12.7088 11.2944 12.6462 11.2444C12.5867 11.1911 12.5084 11.1489 12.4114 11.1176C12.3175 11.0863 12.1892 11.0518 12.0264 11.0143C11.776 10.9548 11.5709 10.8953 11.4113 10.8359C11.2517 10.7764 11.1139 10.6809 10.9981 10.5494C10.8854 10.418 10.8291 10.2427 10.8291 10.0236C10.8291 9.83264 10.8807 9.66048 10.984 9.5071C11.0873 9.35059 11.2423 9.22694 11.4489 9.13617C11.6586 9.04539 11.9137 9 12.2142 9C12.4239 9 12.629 9.02504 12.8293 9.07513C13.0296 9.12521 13.2049 9.19721 13.3552 9.29111L13.1204 9.86864C12.8168 9.69648 12.5131 9.6104 12.2095 9.6104C11.9966 9.6104 11.8386 9.64483 11.7353 9.71369C11.6351 9.78256 11.585 9.87333 11.585 9.98602C11.585 10.0987 11.6429 10.1832 11.7588 10.2395C11.8777 10.2928 12.0577 10.346 12.2987 10.3992C12.5491 10.4587 12.7542 10.5181 12.9138 10.5776C13.0734 10.6371 13.2096 10.731 13.3223 10.8593C13.4381 10.9877 13.496 11.1614 13.496 11.3805C13.496 11.5683 13.4428 11.7405 13.3364 11.897C13.2331 12.0504 13.0766 12.1725 12.8669 12.2632C12.6571 12.354 12.402 12.3994 12.1015 12.3994ZM16.5606 11.7327V12.3431H14.0158V9.05635H16.4996V9.66674H14.7717V10.3804H16.2977V10.972H14.7717V11.7327H16.5606ZM20.1803 9.05635V12.3431H19.5558L17.9171 10.3475V12.3431H17.1659V9.05635H17.795L19.429 11.0518V9.05635H20.1803ZM22.1552 11.0518L21.7138 11.512V12.3431H20.9579V9.05635H21.7138V10.5917L23.1694 9.05635H24.0146L22.6529 10.5213L24.0944 12.3431H23.207L22.1552 11.0518ZM25.906 12.3994C25.5648 12.3994 25.2565 12.3258 24.9811 12.1787C24.7087 12.0316 24.4943 11.8297 24.3378 11.573C24.1844 11.3132 24.1077 11.0221 24.1077 10.6997C24.1077 10.3773 24.1844 10.0877 24.3378 9.83108C24.4943 9.57127 24.7087 9.3678 24.9811 9.22068C25.2565 9.07356 25.5648 9 25.906 9C26.2472 9 26.554 9.07356 26.8263 9.22068C27.0987 9.3678 27.3131 9.57127 27.4696 9.83108C27.6261 10.0877 27.7044 10.3773 27.7044 10.6997C27.7044 11.0221 27.6261 11.3132 27.4696 11.573C27.3131 11.8297 27.0987 12.0316 26.8263 12.1787C26.554 12.3258 26.2472 12.3994 25.906 12.3994ZM25.906 11.7514C26.1001 11.7514 26.2754 11.7076 26.4319 11.62C26.5884 11.5292 26.7105 11.404 26.7982 11.2444C26.8889 11.0847 26.9343 10.9032 26.9343 10.6997C26.9343 10.4962 26.8889 10.3147 26.7982 10.155C26.7105 9.99542 26.5884 9.87177 26.4319 9.78412C26.2754 9.69335 26.1001 9.64796 25.906 9.64796C25.712 9.64796 25.5367 9.69335 25.3802 9.78412C25.2237 9.87177 25.1 9.99542 25.0092 10.155C24.9216 10.3147 24.8778 10.4962 24.8778 10.6997C24.8778 10.9032 24.9216 11.0847 25.0092 11.2444C25.1 11.404 25.2237 11.5292 25.3802 11.62C25.5367 11.7076 25.712 11.7514 25.906 11.7514ZM15.2671 14.0563L14.1918 17.3431H13.3748L12.6518 15.1175L11.9052 17.3431H11.0929L10.013 14.0563H10.8018L11.5437 16.3664L12.3184 14.0563H13.0227L13.7739 16.3852L14.5393 14.0563H15.2671ZM18.2366 16.7327V17.3431H15.6917V14.0563H18.1755V14.6667H16.4476V15.3804H17.9736V15.972H16.4476V16.7327H18.2366ZM21.2552 15.634C21.443 15.6934 21.5901 15.7936 21.6965 15.9345C21.803 16.0722 21.8562 16.2428 21.8562 16.4462C21.8562 16.7342 21.7435 16.9565 21.5181 17.113C21.2959 17.2664 20.9703 17.3431 20.5415 17.3431H18.8418V14.0563H20.4476C20.8483 14.0563 21.155 14.133 21.3679 14.2864C21.5839 14.4398 21.6919 14.6479 21.6919 14.9109C21.6919 15.0705 21.6527 15.2129 21.5745 15.3382C21.4993 15.4634 21.3929 15.562 21.2552 15.634ZM19.5977 14.6292V15.4039H20.3537C20.5415 15.4039 20.6839 15.371 20.781 15.3053C20.878 15.2395 20.9265 15.1425 20.9265 15.0142C20.9265 14.8858 20.878 14.7904 20.781 14.7278C20.6839 14.662 20.5415 14.6292 20.3537 14.6292H19.5977ZM20.4852 16.7702C20.6855 16.7702 20.8357 16.7374 20.9359 16.6716C21.0392 16.6059 21.0909 16.5042 21.0909 16.3664C21.0909 16.0941 20.889 15.9579 20.4852 15.9579H19.5977V16.7702H20.4852Z" fill="url(#paint1_linear_168:604)"/>
<defs>
<linearGradient id="paint0_linear_168:604" x1="21.8278" y1="30.3215" x2="-11.0795" y2="-7.80724" gradientUnits="userSpaceOnUse">
<stop stop-color="#0F0F0F"/>
<stop offset="1" stop-color="#323232"/>
</linearGradient>
<linearGradient id="paint1_linear_168:604" x1="15.976" y1="8.34308" x2="23.7713" y2="18.7122" gradientUnits="userSpaceOnUse">
<stop stop-color="#FAFAFA"/>
<stop offset="1" stop-color="#D0D0D0"/>
</linearGradient>
</defs>
</svg>
